<svg width="1200" height="630" viewBox="0 0 1200 630" xmlns="http://www.w3.org/2000/svg">
  <!-- Background gradient -->
  <defs>
    <linearGradient id="bg-gradient" x1="0%" y1="0%" x2="100%" y2="100%">
      <stop offset="0%" style="stop-color:#1e40af;stop-opacity:1" />
      <stop offset="50%" style="stop-color:#7c3aed;stop-opacity:1" />
      <stop offset="100%" style="stop-color:#ec4899;stop-opacity:1" />
    </linearGradient>
    <linearGradient id="text-gradient" x1="0%" y1="0%" x2="100%" y2="0%">
      <stop offset="0%" style="stop-color:#3b82f6;stop-opacity:1" />
      <stop offset="50%" style="stop-color:#8b5cf6;stop-opacity:1" />
      <stop offset="100%" style="stop-color:#ec4899;stop-opacity:1" />
    </linearGradient>
    <radialGradient id="glow1" cx="50%" cy="50%">
      <stop offset="0%" style="stop-color:#3b82f6;stop-opacity:0.3" />
      <stop offset="100%" style="stop-color:#3b82f6;stop-opacity:0" />
    </radialGradient>
    <radialGradient id="glow2" cx="50%" cy="50%">
      <stop offset="0%" style="stop-color:#8b5cf6;stop-opacity:0.3" />
      <stop offset="100%" style="stop-color:#8b5cf6;stop-opacity:0" />
    </radialGradient>
  </defs>
  
  <!-- Background -->
  <rect width="1200" height="630" fill="#0f172a"/>
  
  <!-- Glowing orbs -->
  <circle cx="200" cy="150" r="200" fill="url(#glow1)" opacity="0.5"/>
  <circle cx="1000" cy="500" r="250" fill="url(#glow2)" opacity="0.5"/>
  
  <!-- Grid pattern -->
  <g opacity="0.05">
    <line x1="0" y1="0" x2="1200" y2="0" stroke="white" stroke-width="1"/>
    <line x1="0" y1="50" x2="1200" y2="50" stroke="white" stroke-width="1"/>
    <line x1="0" y1="100" x2="1200" y2="100" stroke="white" stroke-width="1"/>
    <line x1="0" y1="150" x2="1200" y2="150" stroke="white" stroke-width="1"/>
    <line x1="0" y1="200" x2="1200" y2="200" stroke="white" stroke-width="1"/>
    <line x1="0" y1="250" x2="1200" y2="250" stroke="white" stroke-width="1"/>
    <line x1="0" y1="300" x2="1200" y2="300" stroke="white" stroke-width="1"/>
    <line x1="0" y1="350" x2="1200" y2="350" stroke="white" stroke-width="1"/>
    <line x1="0" y1="400" x2="1200" y2="400" stroke="white" stroke-width="1"/>
    <line x1="0" y1="450" x2="1200" y2="450" stroke="white" stroke-width="1"/>
    <line x1="0" y1="500" x2="1200" y2="500" stroke="white" stroke-width="1"/>
    <line x1="0" y1="550" x2="1200" y2="550" stroke="white" stroke-width="1"/>
    <line x1="0" y1="600" x2="1200" y2="600" stroke="white" stroke-width="1"/>
    
    <line x1="0" y1="0" x2="0" y2="630" stroke="white" stroke-width="1"/>
    <line x1="50" y1="0" x2="50" y2="630" stroke="white" stroke-width="1"/>
    <line x1="100" y1="0" x2="100" y2="630" stroke="white" stroke-width="1"/>
    <line x1="150" y1="0" x2="150" y2="630" stroke="white" stroke-width="1"/>
    <line x1="200" y1="0" x2="200" y2="630" stroke="white" stroke-width="1"/>
    <line x1="250" y1="0" x2="250" y2="630" stroke="white" stroke-width="1"/>
    <line x1="300" y1="0" x2="300" y2="630" stroke="white" stroke-width="1"/>
    <line x1="350" y1="0" x2="350" y2="630" stroke="white" stroke-width="1"/>
    <line x1="400" y1="0" x2="400" y2="630" stroke="white" stroke-width="1"/>
    <line x1="450" y1="0" x2="450" y2="630" stroke="white" stroke-width="1"/>
    <line x1="500" y1="0" x2="500" y2="630" stroke="white" stroke-width="1"/>
    <line x1="550" y1="0" x2="550" y2="630" stroke="white" stroke-width="1"/>
    <line x1="600" y1="0" x2="600" y2="630" stroke="white" stroke-width="1"/>
    <line x1="650" y1="0" x2="650" y2="630" stroke="white" stroke-width="1"/>
    <line x1="700" y1="0" x2="700" y2="630" stroke="white" stroke-width="1"/>
    <line x1="750" y1="0" x2="750" y2="630" stroke="white" stroke-width="1"/>
    <line x1="800" y1="0" x2="800" y2="630" stroke="white" stroke-width="1"/>
    <line x1="850" y1="0" x2="850" y2="630" stroke="white" stroke-width="1"/>
    <line x1="900" y1="0" x2="900" y2="630" stroke="white" stroke-width="1"/>
    <line x1="950" y1="0" x2="950" y2="630" stroke="white" stroke-width="1"/>
    <line x1="1000" y1="0" x2="1000" y2="630" stroke="white" stroke-width="1"/>
    <line x1="1050" y1="0" x2="1050" y2="630" stroke="white" stroke-width="1"/>
    <line x1="1100" y1="0" x2="1100" y2="630" stroke="white" stroke-width="1"/>
    <line x1="1150" y1="0" x2="1150" y2="630" stroke="white" stroke-width="1"/>
    <line x1="1200" y1="0" x2="1200" y2="630" stroke="white" stroke-width="1"/>
  </g>
  
  <!-- Content -->
  <g>
    <!-- Badge -->
    <rect x="450" y="140" width="300" height="40" rx="20" fill="#dc2626" opacity="0.2"/>
    <rect x="450" y="140" width="300" height="40" rx="20" fill="none" stroke="#dc2626" stroke-width="2"/>
    <text x="600" y="167" font-family="system-ui, -apple-system, sans-serif" font-size="18" font-weight="600" fill="#fca5a5" text-anchor="middle">
      🔥 Currently Writing
    </text>
    
    <!-- Title Line 1 -->
    <text x="600" y="260" font-family="system-ui, -apple-system, sans-serif" font-size="64" font-weight="900" fill="#f1f5f9" text-anchor="middle">
      DevOps
    </text>
    
    <!-- Title Line 2 - Gradient -->
    <text x="600" y="340" font-family="system-ui, -apple-system, sans-serif" font-size="72" font-weight="900" fill="url(#text-gradient)" text-anchor="middle">
      Survival Guide
    </text>
    
    <!-- Subtitle -->
    <text x="600" y="400" font-family="system-ui, -apple-system, sans-serif" font-size="24" fill="#94a3b8" text-anchor="middle">
      Real-world DevOps without the BS
    </text>
    
    <!-- Features -->
    <g transform="translate(0, 440)">
      <!-- Feature 1 -->
      <circle cx="320" cy="25" r="10" fill="#10b981"/>
      <text x="340" y="32" font-family="system-ui, -apple-system, sans-serif" font-size="18" fill="#cbd5e1">
        Battle-Tested
      </text>
      
      <!-- Feature 2 -->
      <circle cx="520" cy="25" r="10" fill="#f59e0b"/>
      <text x="540" y="32" font-family="system-ui, -apple-system, sans-serif" font-size="18" fill="#cbd5e1">
        Practical
      </text>
      
      <!-- Feature 3 -->
      <circle cx="680" cy="25" r="10" fill="#3b82f6"/>
      <text x="700" y="32" font-family="system-ui, -apple-system, sans-serif" font-size="18" fill="#cbd5e1">
        No Fluff
      </text>
      
      <!-- Feature 4 -->
      <circle cx="820" cy="25" r="10" fill="#ef4444"/>
      <text x="840" y="32" font-family="system-ui, -apple-system, sans-serif" font-size="18" fill="#cbd5e1">
        No Burnout
      </text>
    </g>
    
    <!-- Footer -->
    <text x="600" y="560" font-family="system-ui, -apple-system, sans-serif" font-size="20" font-weight="600" fill="#64748b" text-anchor="middle">
      devops-daily.com/guides/devops-survival-guide
    </text>
  </g>
</svg>
